<svg width="512" height="512" viewBox="0 0 512 512" fill="none" xmlns="http://www.w3.org/2000/svg" aria-label="Taskly logo">
  <defs>
    <linearGradient id="tasklyBlue" x1="128" y1="96" x2="384" y2="424" gradientUnits="userSpaceOnUse">
      <stop stop-color="#38BDF8" />
      <stop offset="1" stop-color="#1D4ED8" />
    </linearGradient>
    <filter id="tasklyShadow" x="88" y="68" width="336" height="380" filterUnits="userSpaceOnUse" color-interpolation-filters="sRGB">
      <feDropShadow dx="0" dy="10" stdDeviation="11" flood-color="#0F172A" flood-opacity="0.28" />
    </filter>
  </defs>

  <g filter="url(#tasklyShadow)">
    <rect x="122" y="120" width="268" height="304" rx="52" fill="url(#tasklyBlue)" />
    <rect x="188" y="84" width="136" height="56" rx="24" fill="url(#tasklyBlue)" />
    <rect x="176" y="96" width="160" height="40" rx="20" fill="white" fill-opacity="0.28" />

    <circle cx="198" cy="208" r="16" fill="white" fill-opacity="0.98" />
    <path d="M190 208l6 6 12-12" stroke="#1D4ED8" stroke-width="5.5" stroke-linecap="round" stroke-linejoin="round" />
    <rect x="228" y="199" width="128" height="18" rx="9" fill="white" />

    <circle cx="198" cy="270" r="16" fill="white" fill-opacity="0.98" />
    <path d="M190 270l6 6 12-12" stroke="#1D4ED8" stroke-width="5.5" stroke-linecap="round" stroke-linejoin="round" />
    <rect x="228" y="261" width="102" height="18" rx="9" fill="white" />

    <circle cx="198" cy="332" r="16" fill="white" fill-opacity="0.98" />
    <path d="M190 332l6 6 12-12" stroke="#1D4ED8" stroke-width="5.5" stroke-linecap="round" stroke-linejoin="round" />
    <rect x="228" y="323" width="144" height="18" rx="9" fill="white" />
  </g>
</svg>
